<?xml version="1.0" encoding="UTF-8" standalone="no"?>
<!-- Created with Inkscape (http://www.inkscape.org/) -->

<svg
   version="1.1"
   id="svg557"
   width="792"
   height="323"
   viewBox="0 0 792 323"
   sodipodi:docname="Logo.svg"
   inkscape:version="1.1.2 (0a00cf5339, 2022-02-04)"
   xmlns:inkscape="http://www.inkscape.org/namespaces/inkscape"
   xmlns:sodipodi="http://sodipodi.sourceforge.net/DTD/sodipodi-0.dtd"
   xmlns="http://www.w3.org/2000/svg"
   xmlns:svg="http://www.w3.org/2000/svg">
  <defs
     id="defs561" />
  <sodipodi:namedview
     id="namedview559"
     pagecolor="#ffffff"
     bordercolor="#666666"
     borderopacity="1.0"
     inkscape:pageshadow="2"
     inkscape:pageopacity="0.0"
     inkscape:pagecheckerboard="0"
     showgrid="false"
     inkscape:zoom="1.7563131"
     inkscape:cx="396"
     inkscape:cy="161.70237"
     inkscape:window-width="1920"
     inkscape:window-height="1011"
     inkscape:window-x="0"
     inkscape:window-y="32"
     inkscape:window-maximized="1"
     inkscape:current-layer="g563" />
  <g
     inkscape:groupmode="layer"
     inkscape:label="Image"
     id="g563">
    <path
       style="fill:#000000"
       d="m 29.442542,305.58007 c -3.70253,-0.70955 -9.88848,-7.32601 -11.02246,-11.78955 -0.55891,-2.2 -1.21045,-14.23865 -1.44787,-26.75256 l -0.43167,-22.75256 13.93553,-17.74744 c 7.66453,-9.76109 14.0371,-17.85272 14.16126,-17.98139 0.12415,-0.12867 5.82046,4.68982 12.65845,10.70777 6.838,6.01794 12.99351,10.96072 13.67891,10.98395 0.68541,0.0232 6.43224,-6.48277 12.77074,-14.45777 6.3385,-7.975 12.03893,-14.5 12.66762,-14.5 0.62868,0 7.931848,5.08682 16.229258,11.30403 8.2974,6.21722 15.61237,11.62133 16.25548,12.00914 0.74667,0.45026 5.01334,-4.72657 11.80504,-14.3233 l 10.63575,-15.02839 7.64228,6.26926 c 4.20325,3.44809 10.80704,8.85974 14.67509,12.02588 3.86804,3.16615 7.41667,5.62867 7.88583,5.47229 0.46916,-0.15639 3.65917,-4.74242 7.08891,-10.19119 6.95282,-11.04582 8.78777,-12.80132 10.99688,-10.52077 2.24435,2.31692 18.8863,59.72024 18.85998,65.05404 -0.0353,7.16052 -3.54105,12.56493 -9.6596,14.8912 -3.23284,1.22912 -171.946898,28.11145 -175.099448,27.89975 -1.1,-0.0739 -3.02868,-0.33144 -4.28596,-0.57239 z M 310.57525,206.2331 c -7.3927,-3.65937 -11.68867,-12.56009 -13.4866,-27.94258 -2.93317,-25.0953 4.08143,-45.39012 16.9209,-48.95599 10.51949,-2.92155 19.75075,1.13636 24.65119,10.83625 6.09313,12.06068 6.90033,39.13762 1.58988,53.33107 -2.16675,5.79116 -7.74767,12.00173 -12.33722,13.72913 -4.61937,1.73863 -12.75586,1.27034 -17.33815,-0.99788 z m 14.91646,-14.64086 c 3.75058,-6.44749 3.97919,-39.06472 0.32335,-46.13434 -2.19236,-4.23955 -5.93652,-5.12669 -9.0988,-2.15588 -3.39013,3.18486 -4.81552,11.13001 -4.75234,26.48966 0.0776,18.87412 2.45722,25.90699 8.56201,25.30503 2.26739,-0.22357 3.60733,-1.1692 4.96578,-3.50447 z m 138.73032,15.8127 c -2.46713,-0.79846 -7.2347,-3.1931 -9.80489,-4.92477 -1.04963,-0.70718 -0.87187,-1.78815 0.89057,-5.41578 l 2.20193,-4.53225 4.63757,2.40606 c 2.55067,1.32333 6.29153,2.67446 8.31304,3.0025 3.17372,0.51503 4.09134,0.18058 6.72186,-2.44994 1.67551,-1.67552 3.04639,-3.83893 3.04639,-4.80759 0,-3.49689 -4.11729,-10.05197 -11.46248,-18.24923 -9.38226,-10.47065 -13.53752,-18.41095 -13.53752,-25.86888 0,-2.97331 0.50498,-6.38894 1.12219,-7.59028 3.70368,-7.20897 12.86108,-11.50573 21.72445,-10.19336 4.35084,0.64422 14.15336,4.23317 14.15336,5.1819 0,0.49643 -2.52957,5.23878 -3.79104,7.10732 -0.6932,1.0268 -1.44254,0.97854 -3.78659,-0.24384 -4.53975,-2.36739 -10.07406,-1.9755 -12.96782,0.91827 -4.67174,4.67173 -2.96644,9.17283 8.90114,23.49441 4.76219,5.74693 9.65094,12.49693 10.86389,15 4.42161,9.12455 2.0229,19.87684 -5.55275,24.89028 -3.35101,2.21764 -5.2818,2.6962 -11.59371,2.87356 -4.16522,0.11705 -8.70103,-0.15223 -10.07959,-0.59838 z m 69.41889,-0.0311 c -0.22683,-0.22915 -0.41242,-15.41665 -0.41242,-33.74999 v -33.33333 h -6 -6 v -5.52159 -5.5216 l 19.25,0.2716 19.25004,0.27159 v 5 5 l -5.75,0.2999 -5.75004,0.29991 v 33.36803 33.36804 l -7.08758,0.33206 c -3.89816,0.18263 -7.27316,0.14456 -7.5,-0.0846 z m 68.82702,-0.73612 c -8.646,-4.2619 -13.0566,-14.8116 -13.9419,-33.3472 -1.2209,-25.56468 5.0171,-40.95682 17.8458,-44.0344 7.4873,-1.79616 15.0653,0.21485 19.9532,5.29508 6.184,6.42728 9.6049,22.0328 8.5854,39.16496 -1.4282,24.00089 -8.5097,34.55059 -23.1819,34.53514 -3.4799,-0.004 -7.3695,-0.68139 -9.2606,-1.61357 z m 13.1086,-12.83806 c 3.2796,-3.27963 4.152,-8.75069 4.1475,-26.00914 0,-13.82577 -0.3207,-17.69978 -1.6981,-20.74776 -3.6076,-7.98359 -10.3102,-6.98483 -12.8962,1.92171 -0.9471,3.262 -1.3946,10.0114 -1.3807,20.82605 0.018,14.27524 0.2548,16.51204 2.1938,20.75 1.8851,4.12034 2.5689,4.75 5.158,4.75 1.6416,0 3.6557,-0.67089 4.4757,-1.49086 z m 54.0644,13.57419 c -0.2269,-0.22916 -0.4124,-17.94735 -0.4124,-39.37375 v -38.95708 l 14.7981,0.42039 c 13.2099,0.37527 15.3296,0.68372 19.7486,2.87375 8.3704,4.14829 12.1124,12.25838 11.133,24.12835 -0.6512,7.89142 -2.5815,12.2288 -7.271,16.33724 l -3.4382,3.01224 2.0052,5.98776 c 1.1028,3.29327 3.3204,10.3935 4.9279,15.77827 l 2.9229,9.79051 -7.5324,-0.29051 -7.5324,-0.2905 -4.2408,-14 c -4.2157,-13.91724 -4.2593,-14.00185 -7.3809,-14.31336 l -3.14,-0.31336 v 14.4813 14.4813 l -7.0876,0.33206 c -3.8982,0.18263 -7.2732,0.14456 -7.5,-0.0846 z m 25.5288,-41.55295 c 6.7652,-3.49839 6.8462,-20.89784 0.1141,-24.50074 -1.0581,-0.5663 -3.9784,-1.02964 -6.4896,-1.02964 h -4.5657 v 13.5 13.5 h 4.0496 c 2.2273,0 5.3285,-0.66133 6.8916,-1.46962 z m 53.946,41.40315 c -0.5303,-0.32963 -0.8018,-16.63562 -0.6493,-39 l 0.2621,-38.43353 16.25,-0.27477 16.25,-0.27477 v 5.48584 5.48583 l -8.75,0.28894 -8.75,0.28893 v 11 11 l 6.8006,0.29684 6.8006,0.29685 -0.3006,5.20315 -0.3006,5.20316 -6.6924,0.29438 -6.6924,0.29437 0.1924,11.20563 0.1924,11.20562 8.75,0.28893 8.75,0.28894 v 4.91216 4.91217 l -15.6007,0.2989 c -8.5804,0.1644 -16.0108,0.044 -16.5121,-0.26757 z m -507.25668,-0.72227 c -0.26811,-0.43381 -0.42288,-15.39631 -0.34394,-33.25 l 0.14353,-32.46126 -5.71507,-0.2999 -5.71508,-0.29991 v -5.45009 -5.4501 h 19 19 v 5.4501 5.45009 l -5.75,0.29991 -5.75,0.2999 -0.20511,32 c -0.11281,17.6 -0.22531,32.5625 -0.25,33.25 -0.0505,1.40696 -13.56262,1.83934 -14.41433,0.46126 z M 377.2285,168.18153 v -39.109 l 14.75,0.40161 c 12.23625,0.33316 15.51691,0.75464 19.25,2.47316 8.61811,3.9673 12.11111,10.29054 12.11111,21.92426 0,15.68462 -6.63448,22.47681 -23.44265,23.99993 l -7.66846,0.69489 v 14.36207 14.36207 h -7.5 -7.5 z m 27.68243,-3.29427 c 2.55315,-2.19613 2.82554,-3.09871 3.16039,-10.4723 0.35698,-7.86095 0.28835,-8.14711 -2.66127,-11.09674 -2.57512,-2.57511 -3.78661,-3.0277 -8.10463,-3.0277 h -5.07692 v 13.5 13.5 h 4.94424 c 3.77906,0 5.60266,-0.56636 7.73819,-2.40326 z m -238.18243,24.806 c -6.05,-6.89753 -11.80656,-13.27185 -12.79235,-14.16516 -1.68574,-1.5276 -2.56312,-0.85515 -14.75097,11.30564 l -12.95861,12.92985 -14.78958,-14.76492 -14.789568,-14.76492 -14.12291,13.02838 c -7.7676,7.16562 -14.49936,13.00662 -14.95946,12.98001 -0.4601,-0.0266 -4.88655,-4.9917 -9.83655,-11.03355 -14.03981,-17.13664 -10.99419,-16.69725 -25.0689,-3.6166 -16.25854,15.11024 -15.91178,14.83504 -17.78648,14.11565 -2.21128,-0.84855 -2.1182,-3.51499 0.86981,-24.91712 1.38217,-9.9 5.00621,-36.20707 8.05343,-58.46015 6.16,-44.985006 6.59108,-46.542258 13.92429,-50.30003 2.94111,-1.507122 6.60292,-2.180639 13.75785,-2.530484 l 9.75,-0.476733 v -4.656204 c 0,-14.396842 8.14251,-28.642446 21.22113,-37.127128 8.23302,-5.341121 16.56808,-7.3527394 27.809898,-6.711759 7.87171,0.448824 10.08718,1.010984 16.52653,4.193483 15.18075,7.502732 23.80995,20.423646 25.92518,38.819002 l 0.66117,5.75 h 6.37883 c 14.23392,0 22.07722,4.086937 24.40035,12.714389 0.61691,2.291027 3.56378,22.305028 6.5486,44.475564 2.98481,22.17053 6.0937,45.01799 6.90862,50.77214 0.81493,5.75415 1.17524,11.00399 0.80069,11.66631 -1.03276,1.82625 -19.60813,23.26495 -20.181,23.29183 -0.275,0.0129 -5.45,-5.61996 -11.5,-12.51749 z M 133.98376,52.83032 c -1.14765,-14.297283 -12.4476,-24.568622 -26.97314,-24.517841 -9.893688,0.03459 -17.830538,4.468801 -23.229528,12.978038 -2.3502,3.704111 -4.55259,11.174814 -4.55259,15.44282 v 2.55718 h 27.636908 27.63691 z"
       id="path567" />
  </g>
</svg>
